<svg xmlns="http://www.w3.org/2000/svg" aria-hidden="true" style="position:absolute;width:0;height:0;overflow:hidden">
  <defs>
    <symbol id="icon-cross" viewBox="0 0 32 32">
      <path d="m19.587 16.001 6.096 6.096a1.015 1.015 0 0 1 0 1.435l-2.151 2.151a1.015 1.015 0 0 1-1.435 0L16 19.587l-6.097 6.096a1.014 1.014 0 0 1-1.434 0l-2.152-2.151a1.015 1.015 0 0 1 0-1.435l6.097-6.096-6.097-6.097a1.015 1.015 0 0 1 0-1.435L8.47 6.318a1.014 1.014 0 0 1 1.434 0L16 12.415l6.097-6.097a1.015 1.015 0 0 1 1.435 0l2.151 2.152a1.015 1.015 0 0 1 0 1.435l-6.096 6.096z"/>
    </symbol>
    <symbol id="icon-menu" viewBox="0 0 24 24">
      <path d="M19 17H5c-1.103 0-2 .897-2 2s.897 2 2 2h14c1.103 0 2-.897 2-2s-.897-2-2-2zM19 10H5c-1.103 0-2 .897-2 2s.897 2 2 2h14c1.103 0 2-.897 2-2s-.897-2-2-2zM19 3H5c-1.103 0-2 .897-2 2s.897 2 2 2h14c1.103 0 2-.897 2-2s-.897-2-2-2z"/>
    </symbol>
  </defs>
</svg>